User Type,Username,Date,Text
,rsl87,2012-03-08T13:31Z,Great quality but there is no 5.1 channel audio track like it says... which is why i downloaded it :(
,spurs4ever,2012-03-09T07:35Z,What does RC BDRip mean?
,matter0ni,2012-03-11T12:07Z,looks like a pretty cool movie. thanks for the rip and upload :)
,SmartGuyTorrents,2012-03-11T16:43Z,"@spurs4ever
RC BDRip means the video is of Blu Ray quality but the audio is LiNE audio"
,deaddude2,2012-03-13T10:21Z,RC = rated cut
,SmartGuyTorrents,2012-03-13T11:39Z,"@deaddude2
RC means Russian Copy.They are real blurays but meant for Russian region with Russian real DTS audio.So RC BDrip means the Video of real blu ray but audio is changed to English LiNE audio"
,mojtabata2001,2012-03-22T15:20Z,"yep! be aware guys the Audio is NOT 6 channels!!

i stoped downloading,i just wasted 260mb! Damn"
,gbh102,2012-04-02T16:50Z,"Confirmed, 2 channels audio, here is the log from Media Info:

General
Complete name                            : C:DownloadsThe Grey 2012 720p RC BDRip [A Release-Lounge H264]The Grey 2012 720p RC BDRip [A Release-Lounge H264].mp4
Format                                   : MPEG-4
Format profile                           : Base Media / Version 2
Codec ID                                 : mp42
File size                                : 2.00 GiB
Duration                                 : 1h 57mn
Overall bit rate mode                    : Variable
Overall bit rate                         : 2 448 Kbps
Encoded date                             : UTC 2012-03-07 10:46:27
Tagged date                              : UTC 2012-03-07 10:46:27

Video
ID                                       : 1
Format                                   : AVC
Format/Info                              : Advanced Video Codec
Format profile                           : High@L4.1
Format settings, CABAC                   : Yes
Format settings, ReFrames                : 5 frames
Codec ID                                 : avc1
Codec ID/Info                            : Advanced Video Coding
Duration                                 : 1h 57mn
Bit rate                                 : 2 318 Kbps
Maximum bit rate                         : 14.3 Mbps
Width                                    : 1 280 pixels
Height                                   : 544 pixels
Display aspect ratio                     : 2.35:1
Frame rate mode                          : Constant
Frame rate                               : 23.976 fps
Color space                              : YUV
Chroma subsampling                       : 4:2:0
Bit depth                                : 8 bits
Scan type                                : Progressive
Bits/(Pixel*Frame)                       : 0.139
Stream size                              : 1.89 GiB (95%)
Title                                    : Ă
Writing library                          : x264 core 120 r2164 da19765
Encoding settings                        : cabac=1 / ref=5 / deblock=1:0:0 / analyse=0x3:0x113 / me=umh / subme=7 / psy=1 / psy_rd=1.00:0.00 / mixed_ref=1 / me_range=32 / chroma_me=1 / trellis=2 / 8x8dct=1 / cqm=0 / deadzone=21,11 / fast_pskip=0 / chroma_qp_offset=-2 / threads=12 / sliced_threads=0 / slices=4 / nr=0 / decimate=1 / interlaced=0 / bluray_compat=0 / constrained_intra=0 / bframes=4 / b_pyramid=0 / b_adapt=2 / b_bias=0 / direct=1 / weightb=1 / open_gop=0 / weightp=2 / keyint=240 / keyint_min=23 / scenecut=40 / intra_refresh=0 / rc_lookahead=50 / rc=2pass / mbtree=1 / bitrate=2318 / ratetol=1.0 / qcomp=0.60 / qpmin=10 / qpmax=51 / qpstep=4 / cplxblur=20.0 / qblur=0.5 / vbv_maxrate=25000 / vbv_bufsize=25000 / nal_hrd=none / ip_ratio=1.40 / aq=1:1.00
Encoded date                             : UTC 2012-03-07 10:46:27
Tagged date                              : UTC 2012-03-07 10:48:01

Audio
ID                                       : 2
Format                                   : AAC
Format/Info                              : Advanced Audio Codec
Format profile                           : LC
Codec ID                                 : 40
Duration                                 : 1h 56mn
Bit rate mode                            : Variable
Bit rate                                 : 128 Kbps
Maximum bit rate                         : 166 Kbps
Channel(s)                               : 2 channels
Channel positions                        : Front: L R
Sampling rate                            : 48.0 KHz
Compression mode                         : Lossy
Stream size                              : 107 MiB (5%)
Title                                    : Ă
Encoded date                             : UTC 2012-03-07 10:47:52
Tagged date                              : UTC 2012-03-07 10:48:01


So it is up 2 U if U wanna wait for proper one or just grab it ;)

PS. Video is OK ;)
"
,gbh102,2012-04-02T19:29Z,"PS2. BTW, RC means Russian Copy or Region Code ( which refers to releases usually from Russia/Asia region ), like R5 or R6 for DivX/XviD movies. Quality can vary, from Very Good ( a/v ) to Very Bad ( a/v, as far usually video is OK, but audio can be crap as it comes NOT from BluRay source, but from LINE source ). Always, if possible OC, check sample before download such copy
Greetz"
